<svg xmlns="http://www.w3.org/2000/svg" width="114" height="146" fill="none" viewBox="0 0 114 146"><path fill="url(#a)" fill-rule="evenodd" d="m113.829 73.396-19.182.485c-1.137 13.36-2.714 33.596-4.55 61.602-1.121 13.845-64.096 13.784-65.93 1.212-1.23-7.679-4.232-38.64-6.34-60.905L.83 76.214l12.222-40.61 42.61.44-1.516 11.3c-39.305.393-37.91 16.1 1.516 16.1 34.877 0 40.093-10.314 19.865-14.389l-3.488 8.18-11.024.727S71.87 17.065 74.085 8.765c3.958-14.708 21.593-9.497 16.013 5.21a1193.772 1193.772 0 0 1-9.28 22.342l17.938.182 15.073 36.897Zm-87.176 2.166c2.108 26.916 4.291 45.698 5.595 57.558 17.03 6.498 35.392 6.317 49.464.152 1.001-13.223 3.276-37.534 4.838-59.073l-59.897 1.363Z" clip-rule="evenodd"/><defs><linearGradient id="a" x1="57.329" x2="57.329" y1="0" y2="146" gradientUnits="userSpaceOnUse"><stop stop-color="#FF8A8A"/><stop offset="1" stop-color="#C55A5A"/></linearGradient></defs></svg>